<svg width="29" height="29" viewBox="0 0 29 29" fill="none" xmlns="http://www.w3.org/2000/svg">
<path d="M5.56261 13.625H23.9376C24.0536 13.625 24.1649 13.5789 24.247 13.4969C24.329 13.4148 24.3751 13.3035 24.3751 13.1875V10.125C24.3752 10.0101 24.3526 9.89623 24.3087 9.79001C24.2648 9.68379 24.2004 9.58726 24.1192 9.50594L17.9942 3.38094C17.9129 3.29971 17.8163 3.2353 17.7101 3.19138C17.6039 3.14747 17.4901 3.12491 17.3751 3.125H6.87511C6.41098 3.125 5.96586 3.30937 5.63768 3.63756C5.30949 3.96575 5.12511 4.41087 5.12511 4.875V13.1875C5.12511 13.3035 5.17121 13.4148 5.25325 13.4969C5.3353 13.5789 5.44658 13.625 5.56261 13.625ZM17.3751 5.3125L22.1876 10.125H17.3751V5.3125ZM25.2501 17.183C25.2305 17.4079 25.1267 17.6171 24.9593 17.7686C24.792 17.9201 24.5735 18.0028 24.3478 18H21.7501V19.75H23.4706C23.6964 19.747 23.915 19.8295 24.0824 19.9811C24.2498 20.1327 24.3536 20.342 24.3729 20.567C24.3809 20.6867 24.3641 20.8068 24.3237 20.9197C24.2833 21.0327 24.2201 21.1361 24.1381 21.2236C24.056 21.3111 23.9569 21.3808 23.8467 21.4283C23.7366 21.4759 23.6179 21.5003 23.4979 21.5H21.7501V23.2205C21.7532 23.4463 21.6706 23.6649 21.519 23.8323C21.3674 23.9997 21.1581 24.1035 20.9331 24.1228C20.8134 24.1308 20.6933 24.114 20.5804 24.0736C20.4675 24.0332 20.364 23.97 20.2765 23.888C20.189 23.8059 20.1194 23.7067 20.0718 23.5966C20.0243 23.4865 19.9999 23.3678 20.0001 23.2478V17.125C20.0001 16.8929 20.0923 16.6704 20.2564 16.5063C20.4205 16.3422 20.6431 16.25 20.8751 16.25H24.3751C24.4951 16.2497 24.6138 16.2741 24.7239 16.3217C24.834 16.3692 24.9332 16.4389 25.0153 16.5264C25.0973 16.6139 25.1605 16.7173 25.2009 16.8303C25.2413 16.9432 25.2581 17.0633 25.2501 17.183ZM7.75011 16.25H6.00011C5.76805 16.25 5.54549 16.3422 5.38139 16.5063C5.2173 16.6704 5.12511 16.8929 5.12511 17.125V23.2205C5.12151 23.4467 5.20384 23.6658 5.35547 23.8337C5.5071 24.0015 5.71676 24.1056 5.94214 24.125C6.06183 24.1329 6.18188 24.1162 6.29482 24.0758C6.40776 24.0354 6.5112 23.9722 6.59869 23.8902C6.68618 23.8081 6.75587 23.7089 6.80342 23.5988C6.85097 23.4887 6.87538 23.37 6.87511 23.25V22.375H7.68449C9.35136 22.375 10.7623 21.0713 10.8115 19.4055C10.824 18.9956 10.754 18.5875 10.6057 18.2052C10.4575 17.8229 10.234 17.4743 9.94846 17.18C9.66295 16.8857 9.32125 16.6518 8.94362 16.492C8.566 16.3323 8.16014 16.25 7.75011 16.25ZM7.71183 20.625H6.87511V18H7.75011C7.93369 17.9991 8.1154 18.0368 8.28352 18.1105C8.45163 18.1843 8.6024 18.2925 8.7261 18.4281C8.84979 18.5638 8.94365 18.7239 9.00162 18.8981C9.05958 19.0722 9.08036 19.2567 9.06261 19.4394C9.02443 19.7693 8.86509 20.0732 8.61551 20.2923C8.36593 20.5113 8.04388 20.6299 7.71183 20.625ZM14.7501 16.25H13.0001C12.768 16.25 12.5455 16.3422 12.3814 16.5063C12.2173 16.6704 12.1251 16.8929 12.1251 17.125V23.25C12.1251 23.4821 12.2173 23.7046 12.3814 23.8687C12.5455 24.0328 12.768 24.125 13.0001 24.125H14.6757C16.8261 24.125 18.6362 22.4319 18.6865 20.2827C18.6992 19.7577 18.6068 19.2355 18.4147 18.7469C18.2225 18.2582 17.9346 17.8128 17.5678 17.4371C17.201 17.0613 16.7628 16.7627 16.2789 16.5589C15.795 16.355 15.2752 16.25 14.7501 16.25ZM14.6965 22.375H13.8751V18H14.7501C15.0446 17.9998 15.3361 18.059 15.6072 18.1742C15.8782 18.2894 16.1232 18.4581 16.3275 18.6702C16.5317 18.8823 16.6911 19.1335 16.7959 19.4087C16.9008 19.6839 16.949 19.9774 16.9376 20.2717C16.8917 21.4552 15.8811 22.375 14.6965 22.375Z" fill="#4F87E5"/>
</svg>
